<svg width="512" height="211" viewBox="0 0 512 211" fill="none" xmlns="http://www.w3.org/2000/svg">
<path d="M93.5512 27.103C87.5512 34.203 77.9492 39.805 68.3482 39.004C67.1482 29.404 71.8482 19.202 77.3492 12.901C83.3492 5.601 93.8512 0.4 102.352 0C103.352 10.001 99.4512 19.802 93.5512 27.103ZM102.253 40.905C88.3512 40.105 76.4502 48.805 69.8492 48.805C63.1492 48.805 53.0472 41.305 42.0462 41.505C27.7452 41.705 14.4432 49.805 7.1422 62.707C-7.8598 88.51 3.2422 126.715 17.7432 147.717C24.8442 158.118 33.3452 169.519 44.5462 169.119C55.1482 168.719 59.3482 162.219 72.1502 162.219C85.0512 162.219 88.7522 169.119 99.9532 168.919C111.554 168.719 118.855 158.519 125.956 148.117C134.056 136.316 137.357 124.814 137.557 124.214C137.357 124.014 115.155 115.514 114.955 89.91C114.755 68.508 132.457 58.307 133.257 57.707C123.255 42.905 107.654 41.305 102.253 40.905ZM182.563 11.901V167.82H206.765V114.514H240.269C270.872 114.514 292.375 93.512 292.375 63.108C292.375 32.705 271.272 11.902 241.069 11.902L182.563 11.901ZM206.765 32.304H234.668C255.671 32.304 267.672 43.505 267.672 63.207C267.672 82.909 255.671 94.211 234.568 94.211H206.765V32.304ZM336.579 169.019C351.781 169.019 365.882 161.319 372.283 149.117H372.783V167.819H395.186V90.21C395.186 67.708 377.184 53.206 349.48 53.206C323.777 53.206 304.775 67.908 304.075 88.11H325.878C327.678 78.509 336.578 72.208 348.78 72.208C363.582 72.208 371.883 79.109 371.883 91.811V100.411L341.679 102.211C313.576 103.911 298.375 115.413 298.375 135.416C298.375 155.618 314.076 169.019 336.579 169.019ZM343.079 150.517C330.179 150.517 321.977 144.317 321.977 134.815C321.977 125.015 329.878 119.314 344.98 118.414L371.883 116.714V125.514C371.883 140.116 359.482 150.517 343.08 150.517M425.09 210.224C448.693 210.224 459.794 201.224 469.495 173.92L511.999 54.706H487.396L458.893 146.816H458.393L429.89 54.706H404.587L445.591 168.219L443.391 175.12C439.691 186.821 433.69 191.322 422.989 191.322C421.089 191.322 417.389 191.122 415.888 190.922V209.624C417.288 210.024 423.288 210.224 425.089 210.224" fill="black"/>
</svg>
