<svg width="1161" height="1834" viewBox="0 0 1161 1834" fill="none" xmlns="http://www.w3.org/2000/svg">
<g clip-path="url(#clip0_2069_105)">
<rect x="1160.06" width="1834" height="1160.06" rx="165.723" transform="rotate(90 1160.06 0)" fill="#CED1F4"/>
<g opacity="0.7">
<path d="M607.357 1395.36C354.734 1374.98 229.998 950.4 328.751 447.022C427.504 -56.3557 712.35 -447.908 964.972 -427.534" stroke="url(#paint0_linear_2069_105)" stroke-width="226.488" stroke-linecap="round"/>
<path d="M549.886 -92.0404C804.499 -92.0405 1010.9 319.243 1010.9 826.587C1010.9 1333.93 804.499 1745.21 549.886 1745.21" stroke="url(#paint1_linear_2069_105)" stroke-width="226.488" stroke-linecap="round"/>
</g>
<g clip-path="url(#clip1_2069_105)">
<rect y="2292.5" width="1005.39" height="1160.06" transform="rotate(-90 0 2292.5)" fill="black"/>
</g>
<path opacity="0.6" d="M187.2 417.165V457.34H181.629L161.207 427.875H160.835V457.34H154.773V417.165H160.384L180.824 446.668H181.197V417.165H187.2ZM210.484 457.34H204.05L218.507 417.165H225.51L239.968 457.34H233.534L222.176 424.462H221.862L210.484 457.34ZM211.563 441.607H232.435V446.708H211.563V441.607ZM256.818 417.165H264.174L276.964 448.395H277.435L290.225 417.165H297.582V457.34H291.814V428.268H291.442L279.593 457.281H274.807L262.958 428.248H262.585V457.34H256.818V417.165ZM317.443 457.34V417.165H342.631V422.383H323.504V434.624H341.316V439.822H323.504V452.122H342.866V457.34H317.443Z" fill="black"/>
<path d="M153.917 557.266C152.473 557.318 151.339 556.931 150.514 556.106C149.689 555.281 149.277 554.224 149.277 552.935C149.277 551.955 149.586 551.105 150.205 550.383C150.772 549.61 151.623 549.197 152.757 549.146L155.077 548.991C157.346 548.836 159.047 548.14 160.181 546.903C161.367 545.614 161.96 543.783 161.96 541.412V506.61C161.96 504.96 162.372 503.723 163.197 502.898C164.074 502.021 165.311 501.583 166.91 501.583C168.508 501.583 169.719 502.021 170.544 502.898C171.421 503.723 171.859 504.96 171.859 506.61V541.334C171.859 544.583 171.266 547.341 170.08 549.61C168.946 551.878 167.245 553.657 164.976 554.946C162.708 556.183 159.898 556.905 156.546 557.111L153.917 557.266ZM201.365 557.498C197.085 557.498 193.399 556.699 190.305 555.101C187.212 553.502 184.814 551.234 183.113 548.295C181.463 545.356 180.638 541.876 180.638 537.854C180.638 533.936 181.437 530.507 183.036 527.568C184.685 524.63 186.928 522.335 189.764 520.685C192.651 518.984 195.925 518.133 199.586 518.133C202.267 518.133 204.664 518.572 206.778 519.448C208.944 520.324 210.774 521.588 212.269 523.238C213.816 524.887 214.976 526.898 215.749 529.27C216.574 531.59 216.987 534.219 216.987 537.158C216.987 538.086 216.652 538.808 215.981 539.324C215.363 539.788 214.46 540.02 213.275 540.02H188.449V534.451H210.181L208.944 535.612C208.944 533.24 208.583 531.255 207.861 529.657C207.191 528.058 206.185 526.847 204.845 526.022C203.556 525.145 201.932 524.707 199.972 524.707C197.807 524.707 195.951 525.223 194.404 526.254C192.909 527.233 191.749 528.651 190.924 530.507C190.151 532.312 189.764 534.477 189.764 537.004V537.545C189.764 541.773 190.744 544.944 192.703 547.057C194.714 549.12 197.652 550.151 201.519 550.151C202.86 550.151 204.355 549.996 206.005 549.687C207.706 549.326 209.305 548.733 210.8 547.908C211.882 547.289 212.836 547.032 213.661 547.135C214.486 547.186 215.131 547.47 215.595 547.985C216.11 548.501 216.42 549.146 216.523 549.919C216.626 550.641 216.471 551.388 216.059 552.162C215.698 552.935 215.053 553.605 214.125 554.172C212.321 555.307 210.233 556.157 207.861 556.725C205.541 557.24 203.375 557.498 201.365 557.498ZM229.592 557.343C227.994 557.343 226.756 556.931 225.88 556.106C225.055 555.229 224.643 553.992 224.643 552.394V523.16C224.643 521.562 225.055 520.35 225.88 519.525C226.705 518.7 227.865 518.288 229.36 518.288C230.855 518.288 232.015 518.7 232.84 519.525C233.665 520.35 234.078 521.562 234.078 523.16V528.032H233.304C234.026 524.939 235.444 522.593 237.558 520.995C239.672 519.396 242.482 518.443 245.988 518.133C247.07 518.03 247.921 518.314 248.54 518.984C249.21 519.603 249.597 520.582 249.7 521.923C249.803 523.212 249.494 524.269 248.772 525.094C248.102 525.867 247.07 526.331 245.678 526.486L243.977 526.64C240.832 526.95 238.46 527.929 236.862 529.579C235.264 531.178 234.464 533.446 234.464 536.385V552.394C234.464 553.992 234.052 555.229 233.227 556.106C232.402 556.931 231.19 557.343 229.592 557.343ZM272.962 557.498C268.683 557.498 264.996 556.699 261.903 555.101C258.809 553.502 256.412 551.234 254.71 548.295C253.061 545.356 252.236 541.876 252.236 537.854C252.236 533.936 253.035 530.507 254.633 527.568C256.283 524.63 258.526 522.335 261.361 520.685C264.249 518.984 267.523 518.133 271.183 518.133C273.864 518.133 276.262 518.572 278.376 519.448C280.541 520.324 282.371 521.588 283.867 523.238C285.413 524.887 286.573 526.898 287.347 529.27C288.172 531.59 288.584 534.219 288.584 537.158C288.584 538.086 288.249 538.808 287.579 539.324C286.96 539.788 286.058 540.02 284.872 540.02H260.047V534.451H281.778L280.541 535.612C280.541 533.24 280.18 531.255 279.458 529.657C278.788 528.058 277.783 526.847 276.442 526.022C275.153 525.145 273.529 524.707 271.57 524.707C269.405 524.707 267.548 525.223 266.002 526.254C264.506 527.233 263.346 528.651 262.521 530.507C261.748 532.312 261.361 534.477 261.361 537.004V537.545C261.361 541.773 262.341 544.944 264.3 547.057C266.311 549.12 269.25 550.151 273.117 550.151C274.457 550.151 275.952 549.996 277.602 549.687C279.304 549.326 280.902 548.733 282.397 547.908C283.48 547.289 284.434 547.032 285.259 547.135C286.084 547.186 286.728 547.47 287.192 547.985C287.708 548.501 288.017 549.146 288.12 549.919C288.223 550.641 288.069 551.388 287.656 552.162C287.295 552.935 286.651 553.605 285.723 554.172C283.918 555.307 281.83 556.157 279.458 556.725C277.138 557.24 274.973 557.498 272.962 557.498ZM301.19 557.343C299.643 557.343 298.457 556.931 297.632 556.106C296.807 555.229 296.395 553.992 296.395 552.394V523.16C296.395 521.562 296.807 520.35 297.632 519.525C298.457 518.7 299.617 518.288 301.112 518.288C302.607 518.288 303.767 518.7 304.592 519.525C305.417 520.35 305.83 521.562 305.83 523.16V528.806L304.979 526.486C306.01 523.908 307.609 521.871 309.774 520.376C311.939 518.881 314.517 518.133 317.508 518.133C320.55 518.133 323.05 518.855 325.009 520.299C326.969 521.742 328.335 523.959 329.108 526.95H328.026C329.057 524.217 330.758 522.077 333.13 520.531C335.502 518.932 338.234 518.133 341.328 518.133C344.215 518.133 346.587 518.7 348.443 519.835C350.35 520.969 351.768 522.696 352.696 525.016C353.624 527.285 354.088 530.172 354.088 533.678V552.394C354.088 553.992 353.65 555.229 352.774 556.106C351.949 556.931 350.763 557.343 349.216 557.343C347.669 557.343 346.483 556.931 345.659 556.106C344.834 555.229 344.421 553.992 344.421 552.394V534.065C344.421 531.178 343.931 529.064 342.952 527.723C342.024 526.383 340.425 525.712 338.157 525.712C335.63 525.712 333.645 526.615 332.202 528.419C330.758 530.172 330.036 532.621 330.036 535.766V552.394C330.036 553.992 329.624 555.229 328.799 556.106C327.974 556.931 326.788 557.343 325.241 557.343C323.695 557.343 322.483 556.931 321.607 556.106C320.782 555.229 320.369 553.992 320.369 552.394V534.065C320.369 531.178 319.879 529.064 318.9 527.723C317.972 526.383 316.399 525.712 314.182 525.712C311.656 525.712 309.671 526.615 308.227 528.419C306.784 530.172 306.062 532.621 306.062 535.766V552.394C306.062 555.693 304.438 557.343 301.19 557.343ZM373.273 571.264C372.139 571.264 371.211 570.955 370.489 570.336C369.767 569.769 369.329 568.995 369.175 568.016C369.071 567.036 369.252 566.005 369.716 564.922L374.975 553.244V557.266L360.899 524.707C360.435 523.573 360.281 522.516 360.435 521.536C360.59 520.557 361.054 519.783 361.827 519.216C362.652 518.597 363.761 518.288 365.153 518.288C366.339 518.288 367.293 518.572 368.014 519.139C368.736 519.654 369.381 520.66 369.948 522.155L380.388 548.218H378.068L388.741 522.077C389.308 520.634 389.978 519.654 390.752 519.139C391.525 518.572 392.556 518.288 393.845 518.288C394.979 518.288 395.882 518.597 396.552 519.216C397.222 519.783 397.635 520.557 397.789 521.536C397.944 522.464 397.764 523.495 397.248 524.63L378.455 567.552C377.785 568.995 377.063 569.975 376.29 570.491C375.516 571.006 374.511 571.264 373.273 571.264ZM445.108 557.498C442.84 557.498 440.571 557.318 438.303 556.957C436.034 556.647 433.894 556.157 431.884 555.487C429.873 554.765 428.068 553.889 426.47 552.858C425.542 552.239 424.898 551.491 424.537 550.615C424.176 549.738 424.047 548.888 424.15 548.063C424.305 547.186 424.64 546.439 425.155 545.82C425.722 545.15 426.418 544.737 427.243 544.583C428.068 544.428 428.971 544.66 429.95 545.279C432.219 546.619 434.616 547.599 437.143 548.218C439.669 548.836 442.324 549.146 445.108 549.146C449.181 549.146 452.146 548.475 454.002 547.135C455.858 545.743 456.786 543.964 456.786 541.799C456.786 539.994 456.116 538.576 454.776 537.545C453.487 536.514 451.244 535.663 448.047 534.993L439.54 533.214C434.642 532.183 430.981 530.456 428.558 528.032C426.186 525.558 425.001 522.309 425.001 518.288C425.001 515.762 425.516 513.467 426.547 511.405C427.579 509.343 429.022 507.564 430.878 506.069C432.786 504.573 435.029 503.439 437.607 502.666C440.236 501.841 443.123 501.428 446.268 501.428C449.362 501.428 452.301 501.815 455.085 502.588C457.869 503.362 460.37 504.496 462.587 505.991C463.412 506.558 463.953 507.254 464.211 508.079C464.52 508.904 464.597 509.729 464.443 510.554C464.288 511.328 463.927 511.998 463.36 512.565C462.793 513.132 462.071 513.467 461.195 513.57C460.37 513.673 459.416 513.416 458.333 512.797C456.425 511.714 454.492 510.941 452.533 510.477C450.574 510.013 448.46 509.781 446.191 509.781C443.819 509.781 441.783 510.116 440.081 510.786C438.38 511.456 437.065 512.41 436.137 513.648C435.261 514.834 434.822 516.251 434.822 517.901C434.822 519.757 435.441 521.253 436.679 522.387C437.916 523.47 440.03 524.32 443.02 524.939L451.45 526.718C456.554 527.8 460.344 529.502 462.819 531.822C465.345 534.142 466.608 537.236 466.608 541.102C466.608 543.577 466.093 545.82 465.061 547.831C464.082 549.842 462.638 551.569 460.73 553.012C458.874 554.456 456.632 555.565 454.002 556.338C451.373 557.111 448.408 557.498 445.108 557.498ZM479.126 557.343C477.579 557.343 476.393 556.931 475.568 556.106C474.743 555.229 474.331 553.992 474.331 552.394V523.16C474.331 521.562 474.743 520.35 475.568 519.525C476.393 518.7 477.553 518.288 479.049 518.288C480.544 518.288 481.704 518.7 482.529 519.525C483.354 520.35 483.766 521.562 483.766 523.16V528.806L482.915 526.486C483.947 523.908 485.545 521.871 487.71 520.376C489.876 518.881 492.454 518.133 495.444 518.133C498.486 518.133 500.987 518.855 502.946 520.299C504.905 521.742 506.271 523.959 507.045 526.95H505.962C506.993 524.217 508.695 522.077 511.066 520.531C513.438 518.932 516.17 518.133 519.264 518.133C522.151 518.133 524.523 518.7 526.379 519.835C528.287 520.969 529.704 522.696 530.633 525.016C531.561 527.285 532.025 530.172 532.025 533.678V552.394C532.025 553.992 531.586 555.229 530.71 556.106C529.885 556.931 528.699 557.343 527.152 557.343C525.606 557.343 524.42 556.931 523.595 556.106C522.77 555.229 522.357 553.992 522.357 552.394V534.065C522.357 531.178 521.868 529.064 520.888 527.723C519.96 526.383 518.362 525.712 516.093 525.712C513.567 525.712 511.582 526.615 510.138 528.419C508.695 530.172 507.973 532.621 507.973 535.766V552.394C507.973 553.992 507.56 555.229 506.735 556.106C505.91 556.931 504.725 557.343 503.178 557.343C501.631 557.343 500.419 556.931 499.543 556.106C498.718 555.229 498.306 553.992 498.306 552.394V534.065C498.306 531.178 497.816 529.064 496.836 527.723C495.908 526.383 494.336 525.712 492.119 525.712C489.592 525.712 487.607 526.615 486.164 528.419C484.72 530.172 483.998 532.621 483.998 535.766V552.394C483.998 555.693 482.374 557.343 479.126 557.343ZM546.792 557.266C545.246 557.266 544.06 556.802 543.235 555.874C542.41 554.946 541.998 553.657 541.998 552.007V523.624C541.998 521.923 542.41 520.634 543.235 519.757C544.06 518.829 545.246 518.365 546.792 518.365C548.339 518.365 549.525 518.829 550.35 519.757C551.226 520.634 551.665 521.923 551.665 523.624V552.007C551.665 553.657 551.252 554.946 550.427 555.874C549.602 556.802 548.391 557.266 546.792 557.266ZM546.792 511.173C544.988 511.173 543.57 510.735 542.539 509.858C541.559 508.93 541.069 507.667 541.069 506.069C541.069 504.419 541.559 503.156 542.539 502.279C543.57 501.403 544.988 500.964 546.792 500.964C548.649 500.964 550.066 501.403 551.046 502.279C552.026 503.156 552.515 504.419 552.515 506.069C552.515 507.667 552.026 508.93 551.046 509.858C550.066 510.735 548.649 511.173 546.792 511.173ZM579.033 557.498C575.682 557.498 572.872 556.931 570.603 555.797C568.386 554.662 566.736 553.012 565.654 550.847C564.571 548.63 564.03 545.897 564.03 542.649V526.176H560.008C558.771 526.176 557.817 525.867 557.147 525.248C556.476 524.578 556.141 523.676 556.141 522.541C556.141 521.356 556.476 520.453 557.147 519.835C557.817 519.216 558.771 518.907 560.008 518.907H564.03V511.869C564.03 510.271 564.442 509.059 565.267 508.234C566.143 507.409 567.355 506.997 568.902 506.997C570.449 506.997 571.634 507.409 572.459 508.234C573.284 509.059 573.697 510.271 573.697 511.869V518.907H581.895C583.132 518.907 584.086 519.216 584.756 519.835C585.426 520.453 585.761 521.356 585.761 522.541C585.761 523.676 585.426 524.578 584.756 525.248C584.086 525.867 583.132 526.176 581.895 526.176H573.697V542.108C573.697 544.583 574.238 546.439 575.321 547.676C576.404 548.914 578.157 549.532 580.58 549.532C581.456 549.532 582.23 549.455 582.9 549.3C583.57 549.146 584.163 549.042 584.679 548.991C585.297 548.939 585.813 549.146 586.225 549.61C586.638 550.022 586.844 550.899 586.844 552.239C586.844 553.27 586.664 554.198 586.303 555.023C585.993 555.797 585.4 556.338 584.524 556.647C583.854 556.854 582.977 557.034 581.895 557.189C580.812 557.395 579.858 557.498 579.033 557.498ZM597.167 557.343C595.621 557.343 594.435 556.931 593.61 556.106C592.785 555.229 592.373 553.992 592.373 552.394V506.455C592.373 504.857 592.785 503.645 593.61 502.82C594.435 501.996 595.621 501.583 597.167 501.583C598.714 501.583 599.9 501.996 600.725 502.82C601.601 503.645 602.04 504.857 602.04 506.455V526.486H600.957C602.091 523.753 603.844 521.691 606.216 520.299C608.639 518.855 611.372 518.133 614.414 518.133C617.456 518.133 619.956 518.7 621.915 519.835C623.875 520.969 625.344 522.696 626.324 525.016C627.303 527.285 627.793 530.172 627.793 533.678V552.394C627.793 553.992 627.381 555.229 626.556 556.106C625.731 556.931 624.545 557.343 622.998 557.343C621.451 557.343 620.24 556.931 619.363 556.106C618.538 555.229 618.126 553.992 618.126 552.394V534.142C618.126 531.203 617.559 529.064 616.424 527.723C615.342 526.383 613.64 525.712 611.32 525.712C608.484 525.712 606.216 526.615 604.515 528.419C602.865 530.172 602.04 532.518 602.04 535.457V552.394C602.04 555.693 600.416 557.343 597.167 557.343Z" fill="black"/>
<rect x="736.086" y="319.015" width="174.009" height="131.921" rx="20.7154" transform="rotate(-90 736.086 319.015)" fill="url(#paint2_linear_2069_105)" stroke="#9F7E3B" stroke-width="2.76205"/>
<path d="M776.136 317.635V270.68C776.136 264.578 781.082 259.632 787.184 259.632H808.59M866.731 259.632H841.044M841.044 259.632H808.59M841.044 259.632V317.635M808.59 259.632V317.635" stroke="black" stroke-opacity="0.76" stroke-width="2.76205"/>
<path d="M776.135 146.387V201.628M776.135 201.628H808.59M776.135 201.628H737.467M866.731 201.628L841.044 201.628M841.044 201.628H808.59M841.044 201.628V146.387M808.59 201.628V146.387" stroke="black" stroke-opacity="0.76" stroke-width="2.76205"/>
<path d="M148.753 243.674H189.853V233.068H160.597V217.865H186.671V207.259H160.597V193.648H189.853V183.041H148.753V243.674ZM219.418 244.911C231.439 244.911 240.719 237.222 242.575 225.732H232.411C231.085 231.653 225.87 235.542 219.418 235.542C211.375 235.542 206.072 229.974 206.072 221.577C206.072 213.181 211.375 207.613 219.418 207.613C225.782 207.613 230.908 211.325 232.323 216.981H242.487C240.542 205.756 231.35 198.244 219.418 198.244C205.011 198.244 195.466 207.613 195.466 221.577C195.466 235.542 205.011 244.911 219.418 244.911ZM252.471 243.674H263.077V217.423C263.077 211.501 267.408 207.613 273.86 207.613C280.312 207.613 284.643 211.501 284.643 217.423V243.674H295.25V216.186C295.25 205.403 287.207 198.244 275.098 198.244C270.767 198.244 265.994 200.011 263.077 202.751V183.041H252.471V243.674ZM328.253 244.911C342.66 244.911 352.206 235.542 352.206 221.577C352.206 207.613 342.66 198.244 328.253 198.244C313.846 198.244 304.301 207.613 304.301 221.577C304.301 235.542 313.846 244.911 328.253 244.911ZM328.253 235.542C320.21 235.542 314.907 229.974 314.907 221.577C314.907 213.181 320.21 207.613 328.253 207.613C336.296 207.613 341.6 213.181 341.6 221.577C341.6 229.974 336.296 235.542 328.253 235.542Z" fill="black"/>
<path opacity="0.6" d="M192.926 688.397V728.572H187.355L166.934 699.108H166.561V728.572H160.5V688.397H166.11L186.551 717.901H186.924V688.397H192.926ZM225.038 729.18C222.213 729.18 219.748 728.533 217.643 727.238C215.537 725.944 213.902 724.132 212.738 721.804C211.574 719.477 210.992 716.756 210.992 713.644C210.992 710.518 211.574 707.785 212.738 705.444C213.902 703.103 215.537 701.285 217.643 699.991C219.748 698.696 222.213 698.048 225.038 698.048C227.863 698.048 230.328 698.696 232.434 699.991C234.539 701.285 236.174 703.103 237.338 705.444C238.502 707.785 239.084 710.518 239.084 713.644C239.084 716.756 238.502 719.477 237.338 721.804C236.174 724.132 234.539 725.944 232.434 727.238C230.328 728.533 227.863 729.18 225.038 729.18ZM225.058 724.257C226.889 724.257 228.406 723.773 229.609 722.805C230.812 721.837 231.701 720.549 232.277 718.94C232.865 717.332 233.159 715.56 233.159 713.624C233.159 711.702 232.865 709.936 232.277 708.328C231.701 706.706 230.812 705.405 229.609 704.424C228.406 703.443 226.889 702.953 225.058 702.953C223.214 702.953 221.684 703.443 220.467 704.424C219.264 705.405 218.368 706.706 217.78 708.328C217.204 709.936 216.917 711.702 216.917 713.624C216.917 715.56 217.204 717.332 217.78 718.94C218.368 720.549 219.264 721.837 220.467 722.805C221.684 723.773 223.214 724.257 225.058 724.257ZM260.544 728.945C259.471 728.945 258.549 728.566 257.778 727.807C257.006 727.036 256.62 726.107 256.62 725.022C256.62 723.949 257.006 723.034 257.778 722.275C258.549 721.504 259.471 721.118 260.544 721.118C261.616 721.118 262.538 721.504 263.31 722.275C264.081 723.034 264.467 723.949 264.467 725.022C264.467 725.741 264.284 726.401 263.918 727.003C263.565 727.591 263.094 728.062 262.505 728.415C261.917 728.768 261.263 728.945 260.544 728.945Z" fill="black"/>
<path d="M178.735 819.454C177.409 819.454 176.359 819.086 175.586 818.349C174.849 817.613 174.481 816.545 174.481 815.145V811.997H162.107C160.745 811.997 159.658 811.702 158.848 811.113C158.038 810.487 157.633 809.548 157.633 808.296C157.633 807.559 157.798 806.804 158.13 806.031C158.461 805.257 159.051 804.3 159.898 803.158L174.205 782.332C174.831 781.412 175.531 780.712 176.304 780.233C177.078 779.754 177.961 779.515 178.956 779.515C180.134 779.515 181.073 779.883 181.773 780.62C182.51 781.32 182.878 782.388 182.878 783.824V805.257H184.922C186.137 805.257 187.058 805.552 187.684 806.141C188.31 806.694 188.623 807.522 188.623 808.627C188.623 809.695 188.31 810.524 187.684 811.113C187.095 811.702 186.174 811.997 184.922 811.997H182.878V815.145C182.878 816.545 182.51 817.613 181.773 818.349C181.073 819.086 180.061 819.454 178.735 819.454ZM174.481 805.257V790.066H176.083L164.317 807.356V805.257H174.481ZM204.842 819.565C202.89 819.565 200.902 819.344 198.876 818.902C196.887 818.423 195.157 817.76 193.683 816.913C192.726 816.398 192.063 815.79 191.695 815.09C191.363 814.354 191.234 813.635 191.308 812.936C191.419 812.236 191.713 811.628 192.192 811.113C192.671 810.56 193.278 810.211 194.015 810.063C194.788 809.916 195.635 810.063 196.556 810.505C197.992 811.205 199.355 811.702 200.644 811.997C201.933 812.291 203.222 812.439 204.511 812.439C205.984 812.439 207.217 812.254 208.212 811.886C209.206 811.481 209.961 810.91 210.477 810.174C210.992 809.437 211.25 808.516 211.25 807.412C211.25 805.865 210.716 804.705 209.648 803.931C208.58 803.158 207.015 802.771 204.953 802.771H201.693C200.478 802.771 199.539 802.477 198.876 801.888C198.25 801.262 197.937 800.414 197.937 799.346C197.937 798.242 198.25 797.395 198.876 796.805C199.539 796.179 200.478 795.866 201.693 795.866H204.124C205.376 795.866 206.426 795.682 207.273 795.314C208.157 794.909 208.838 794.356 209.317 793.657C209.832 792.957 210.09 792.092 210.09 791.06C210.09 789.587 209.574 788.464 208.543 787.691C207.549 786.917 206.094 786.531 204.179 786.531C203.001 786.531 201.841 786.678 200.699 786.973C199.557 787.23 198.324 787.709 196.998 788.409C196.188 788.814 195.433 788.943 194.733 788.795C194.033 788.648 193.444 788.317 192.965 787.801C192.523 787.286 192.229 786.696 192.081 786.033C191.971 785.334 192.063 784.634 192.358 783.934C192.689 783.235 193.278 782.664 194.125 782.222C195.709 781.301 197.421 780.601 199.263 780.123C201.141 779.644 203.038 779.404 204.953 779.404C207.751 779.404 210.145 779.828 212.134 780.675C214.123 781.522 215.651 782.737 216.719 784.321C217.787 785.868 218.321 787.746 218.321 789.956C218.321 791.465 218.026 792.846 217.437 794.099C216.848 795.351 216.019 796.419 214.951 797.303C213.92 798.15 212.65 798.757 211.14 799.126V798.407C213.754 798.849 215.798 799.936 217.271 801.667C218.744 803.397 219.481 805.57 219.481 808.185C219.481 810.505 218.892 812.531 217.713 814.262C216.535 815.956 214.841 817.263 212.631 818.184C210.458 819.104 207.862 819.565 204.842 819.565ZM244.981 819.454C243.655 819.454 242.605 819.086 241.832 818.349C241.095 817.613 240.727 816.545 240.727 815.145V811.997H228.353C226.991 811.997 225.904 811.702 225.094 811.113C224.284 810.487 223.879 809.548 223.879 808.296C223.879 807.559 224.044 806.804 224.376 806.031C224.707 805.257 225.297 804.3 226.144 803.158L240.451 782.332C241.077 781.412 241.777 780.712 242.55 780.233C243.324 779.754 244.207 779.515 245.202 779.515C246.38 779.515 247.319 779.883 248.019 780.62C248.756 781.32 249.124 782.388 249.124 783.824V805.257H251.168C252.383 805.257 253.304 805.552 253.93 806.141C254.556 806.694 254.869 807.522 254.869 808.627C254.869 809.695 254.556 810.524 253.93 811.113C253.341 811.702 252.42 811.997 251.168 811.997H249.124V815.145C249.124 816.545 248.756 817.613 248.019 818.349C247.319 819.086 246.307 819.454 244.981 819.454ZM240.727 805.257V790.066H242.329L230.563 807.356V805.257H240.727ZM263.078 818.957C261.716 818.957 260.703 818.644 260.04 818.018C259.414 817.355 259.101 816.398 259.101 815.145C259.101 814.335 259.303 813.58 259.708 812.881C260.114 812.181 260.666 811.463 261.366 810.726L271.751 799.788C273.298 798.131 274.403 796.658 275.065 795.369C275.765 794.08 276.115 792.791 276.115 791.502C276.115 789.882 275.581 788.648 274.513 787.801C273.482 786.954 271.972 786.531 269.983 786.531C268.915 786.531 267.811 786.696 266.669 787.028C265.564 787.322 264.404 787.82 263.189 788.519C262.378 788.961 261.624 789.127 260.924 789.016C260.261 788.869 259.69 788.556 259.211 788.077C258.733 787.562 258.42 786.954 258.272 786.254C258.125 785.555 258.199 784.855 258.493 784.155C258.788 783.456 259.34 782.866 260.15 782.388C261.771 781.393 263.539 780.657 265.454 780.178C267.369 779.662 269.265 779.404 271.143 779.404C274.053 779.404 276.502 779.846 278.49 780.73C280.479 781.577 281.989 782.829 283.02 784.487C284.051 786.144 284.567 788.169 284.567 790.563C284.567 792.11 284.328 793.62 283.849 795.093C283.37 796.566 282.615 798.058 281.584 799.567C280.59 801.041 279.264 802.624 277.607 804.318L267.939 814.151V811.941H282.91C284.088 811.941 284.972 812.236 285.561 812.825C286.187 813.415 286.5 814.28 286.5 815.422C286.5 816.563 286.187 817.447 285.561 818.073C284.972 818.662 284.088 818.957 282.91 818.957H263.078Z" fill="black"/>
<path d="M349.851 819.565C345.137 819.565 341.528 817.815 339.023 814.317C336.556 810.781 335.322 805.791 335.322 799.346C335.322 795.038 335.875 791.41 336.979 788.464C338.121 785.481 339.76 783.235 341.896 781.725C344.069 780.178 346.72 779.404 349.851 779.404C354.601 779.404 358.21 781.117 360.678 784.542C363.145 787.93 364.379 792.865 364.379 799.346C364.379 803.655 363.808 807.32 362.667 810.339C361.562 813.322 359.941 815.606 357.805 817.189C355.669 818.773 353.018 819.565 349.851 819.565ZM349.851 812.604C351.987 812.604 353.57 811.555 354.601 809.456C355.632 807.32 356.148 803.95 356.148 799.346C356.148 794.743 355.632 791.429 354.601 789.403C353.57 787.378 351.987 786.365 349.851 786.365C347.715 786.365 346.131 787.378 345.1 789.403C344.069 791.429 343.553 794.743 343.553 799.346C343.553 803.95 344.069 807.32 345.1 809.456C346.131 811.555 347.715 812.604 349.851 812.604ZM382.974 819.565C379.88 819.565 377.229 819.123 375.019 818.239C372.809 817.355 371.115 816.085 369.937 814.427C368.758 812.733 368.169 810.708 368.169 808.351C368.169 806.509 368.537 804.871 369.274 803.434C370.047 801.998 371.097 800.838 372.423 799.954C373.748 799.07 375.24 798.518 376.897 798.297V799.733C374.577 799.218 372.699 798.094 371.263 796.363C369.863 794.596 369.163 792.478 369.163 790.011C369.163 787.801 369.716 785.905 370.821 784.321C371.962 782.737 373.564 781.522 375.627 780.675C377.726 779.828 380.175 779.404 382.974 779.404C385.809 779.404 388.258 779.828 390.321 780.675C392.383 781.522 393.985 782.737 395.127 784.321C396.268 785.905 396.839 787.801 396.839 790.011C396.839 791.668 396.508 793.178 395.845 794.541C395.219 795.903 394.316 797.026 393.138 797.91C391.996 798.794 390.671 799.365 389.161 799.623V798.297C391.702 798.665 393.764 799.752 395.348 801.556C396.968 803.361 397.778 805.626 397.778 808.351C397.778 810.708 397.189 812.733 396.01 814.427C394.832 816.085 393.138 817.355 390.928 818.239C388.719 819.123 386.067 819.565 382.974 819.565ZM382.974 812.991C385.257 812.991 386.988 812.549 388.166 811.665C389.345 810.781 389.934 809.474 389.934 807.743C389.934 806.012 389.345 804.723 388.166 803.876C386.988 802.992 385.257 802.55 382.974 802.55C380.69 802.55 378.959 802.992 377.781 803.876C376.602 804.723 376.013 806.012 376.013 807.743C376.013 809.474 376.602 810.781 377.781 811.665C378.959 812.549 380.69 812.991 382.974 812.991ZM382.974 795.977C384.226 795.977 385.294 795.774 386.178 795.369C387.098 794.964 387.78 794.375 388.222 793.601C388.7 792.828 388.94 791.944 388.94 790.95C388.94 789.403 388.406 788.188 387.338 787.304C386.306 786.42 384.852 785.978 382.974 785.978C381.095 785.978 379.641 786.42 378.61 787.304C377.578 788.188 377.063 789.403 377.063 790.95C377.063 792.497 377.578 793.73 378.61 794.651C379.641 795.535 381.095 795.977 382.974 795.977ZM409.191 819.454C408.124 819.454 407.258 819.215 406.595 818.736C405.932 818.22 405.546 817.558 405.435 816.747C405.325 815.937 405.546 815.035 406.098 814.041L422.063 784.431V787.083H405.38C404.165 787.083 403.244 786.788 402.618 786.199C401.992 785.573 401.679 784.689 401.679 783.548C401.679 782.406 401.992 781.54 402.618 780.951C403.244 780.325 404.165 780.012 405.38 780.012H426.427C427.605 780.012 428.563 780.325 429.299 780.951C430.073 781.577 430.459 782.461 430.459 783.603C430.459 784.597 430.312 785.463 430.017 786.199C429.76 786.936 429.41 787.727 428.968 788.574L414.053 816.692C413.537 817.65 412.893 818.349 412.119 818.791C411.346 819.233 410.37 819.454 409.191 819.454ZM448.281 819.565C446.329 819.565 444.34 819.344 442.314 818.902C440.326 818.423 438.595 817.76 437.122 816.913C436.164 816.398 435.501 815.79 435.133 815.09C434.802 814.354 434.673 813.635 434.746 812.936C434.857 812.236 435.152 811.628 435.63 811.113C436.109 810.56 436.717 810.211 437.453 810.063C438.227 809.916 439.074 810.063 439.994 810.505C441.431 811.205 442.793 811.702 444.082 811.997C445.371 812.291 446.66 812.439 447.949 812.439C449.422 812.439 450.656 812.254 451.65 811.886C452.645 811.481 453.4 810.91 453.915 810.174C454.431 809.437 454.688 808.516 454.688 807.412C454.688 805.865 454.154 804.705 453.086 803.931C452.018 803.158 450.453 802.771 448.391 802.771H445.132C443.916 802.771 442.977 802.477 442.314 801.888C441.688 801.262 441.375 800.414 441.375 799.346C441.375 798.242 441.688 797.395 442.314 796.805C442.977 796.179 443.916 795.866 445.132 795.866H447.562C448.815 795.866 449.864 795.682 450.711 795.314C451.595 794.909 452.276 794.356 452.755 793.657C453.271 792.957 453.528 792.092 453.528 791.06C453.528 789.587 453.013 788.464 451.982 787.691C450.987 786.917 449.533 786.531 447.618 786.531C446.439 786.531 445.279 786.678 444.137 786.973C442.996 787.23 441.762 787.709 440.436 788.409C439.626 788.814 438.871 788.943 438.171 788.795C437.472 788.648 436.882 788.317 436.404 787.801C435.962 787.286 435.667 786.696 435.52 786.033C435.409 785.334 435.501 784.634 435.796 783.934C436.128 783.235 436.717 782.664 437.564 782.222C439.147 781.301 440.86 780.601 442.701 780.123C444.579 779.644 446.476 779.404 448.391 779.404C451.19 779.404 453.584 779.828 455.572 780.675C457.561 781.522 459.089 782.737 460.157 784.321C461.225 785.868 461.759 787.746 461.759 789.956C461.759 791.465 461.465 792.846 460.875 794.099C460.286 795.351 459.458 796.419 458.39 797.303C457.358 798.15 456.088 798.757 454.578 799.126V798.407C457.193 798.849 459.237 799.936 460.71 801.667C462.183 803.397 462.919 805.57 462.919 808.185C462.919 810.505 462.33 812.531 461.152 814.262C459.973 815.956 458.279 817.263 456.069 818.184C453.897 819.104 451.3 819.565 448.281 819.565Z" fill="black"/>
<path d="M533.12 819.454C531.795 819.454 530.745 819.086 529.972 818.349C529.235 817.613 528.867 816.545 528.867 815.145V811.997H516.493C515.13 811.997 514.044 811.702 513.234 811.113C512.424 810.487 512.018 809.548 512.018 808.296C512.018 807.559 512.184 806.804 512.516 806.031C512.847 805.257 513.436 804.3 514.283 803.158L528.591 782.332C529.217 781.412 529.917 780.712 530.69 780.233C531.463 779.754 532.347 779.515 533.341 779.515C534.52 779.515 535.459 779.883 536.159 780.62C536.895 781.32 537.264 782.388 537.264 783.824V805.257H539.307C540.523 805.257 541.443 805.552 542.07 806.141C542.696 806.694 543.009 807.522 543.009 808.627C543.009 809.695 542.696 810.524 542.07 811.113C541.48 811.702 540.56 811.997 539.307 811.997H537.264V815.145C537.264 816.545 536.895 817.613 536.159 818.349C535.459 819.086 534.446 819.454 533.12 819.454ZM528.867 805.257V790.066H530.469L518.703 807.356V805.257H528.867ZM559.228 819.565C557.276 819.565 555.287 819.344 553.262 818.902C551.273 818.423 549.542 817.76 548.069 816.913C547.112 816.398 546.449 815.79 546.081 815.09C545.749 814.354 545.62 813.635 545.694 812.936C545.804 812.236 546.099 811.628 546.578 811.113C547.056 810.56 547.664 810.211 548.401 810.063C549.174 809.916 550.021 810.063 550.942 810.505C552.378 811.205 553.741 811.702 555.03 811.997C556.319 812.291 557.607 812.439 558.896 812.439C560.37 812.439 561.603 812.254 562.598 811.886C563.592 811.481 564.347 810.91 564.862 810.174C565.378 809.437 565.636 808.516 565.636 807.412C565.636 805.865 565.102 804.705 564.034 803.931C562.966 803.158 561.401 802.771 559.338 802.771H556.079C554.864 802.771 553.925 802.477 553.262 801.888C552.636 801.262 552.323 800.414 552.323 799.346C552.323 798.242 552.636 797.395 553.262 796.805C553.925 796.179 554.864 795.866 556.079 795.866H558.51C559.762 795.866 560.811 795.682 561.658 795.314C562.542 794.909 563.224 794.356 563.702 793.657C564.218 792.957 564.476 792.092 564.476 791.06C564.476 789.587 563.96 788.464 562.929 787.691C561.935 786.917 560.48 786.531 558.565 786.531C557.387 786.531 556.226 786.678 555.085 786.973C553.943 787.23 552.709 787.709 551.384 788.409C550.573 788.814 549.818 788.943 549.119 788.795C548.419 788.648 547.83 788.317 547.351 787.801C546.909 787.286 546.615 786.696 546.467 786.033C546.357 785.334 546.449 784.634 546.743 783.934C547.075 783.235 547.664 782.664 548.511 782.222C550.095 781.301 551.807 780.601 553.649 780.123C555.527 779.644 557.423 779.404 559.338 779.404C562.137 779.404 564.531 779.828 566.52 780.675C568.508 781.522 570.037 782.737 571.105 784.321C572.173 785.868 572.707 787.746 572.707 789.956C572.707 791.465 572.412 792.846 571.823 794.099C571.234 795.351 570.405 796.419 569.337 797.303C568.306 798.15 567.035 798.757 565.525 799.126V798.407C568.14 798.849 570.184 799.936 571.657 801.667C573.13 803.397 573.867 805.57 573.867 808.185C573.867 810.505 573.277 812.531 572.099 814.262C570.921 815.956 569.226 817.263 567.017 818.184C564.844 819.104 562.248 819.565 559.228 819.565ZM585.391 818.957C584.212 818.957 583.31 818.644 582.684 818.018C582.058 817.392 581.745 816.526 581.745 815.422C581.745 814.28 582.058 813.415 582.684 812.825C583.31 812.236 584.212 811.941 585.391 811.941H590.97V787.028H595.002L586.937 791.944C586.09 792.46 585.298 792.662 584.562 792.552C583.862 792.441 583.255 792.128 582.739 791.613C582.223 791.097 581.874 790.49 581.689 789.79C581.542 789.053 581.616 788.335 581.91 787.635C582.205 786.899 582.757 786.273 583.568 785.757L591.246 781.117C592.019 780.638 592.793 780.252 593.566 779.957C594.376 779.662 595.168 779.515 595.942 779.515C597.046 779.515 597.912 779.81 598.538 780.399C599.201 780.951 599.532 781.817 599.532 782.995V811.941H604.559C605.701 811.941 606.585 812.236 607.211 812.825C607.837 813.415 608.15 814.28 608.15 815.422C608.15 816.563 607.837 817.447 607.211 818.073C606.585 818.662 605.701 818.957 604.559 818.957H585.391ZM618.514 818.957C617.335 818.957 616.433 818.644 615.807 818.018C615.181 817.392 614.868 816.526 614.868 815.422C614.868 814.28 615.181 813.415 615.807 812.825C616.433 812.236 617.335 811.941 618.514 811.941H624.093V787.028H628.125L620.06 791.944C619.213 792.46 618.421 792.662 617.685 792.552C616.985 792.441 616.378 792.128 615.862 791.613C615.346 791.097 614.997 790.49 614.812 789.79C614.665 789.053 614.739 788.335 615.033 787.635C615.328 786.899 615.88 786.273 616.691 785.757L624.369 781.117C625.142 780.638 625.916 780.252 626.689 779.957C627.499 779.662 628.291 779.515 629.065 779.515C630.169 779.515 631.035 779.81 631.661 780.399C632.324 780.951 632.655 781.817 632.655 782.995V811.941H637.682C638.824 811.941 639.708 812.236 640.334 812.825C640.96 813.415 641.273 814.28 641.273 815.422C641.273 816.563 640.96 817.447 640.334 818.073C639.708 818.662 638.824 818.957 637.682 818.957H618.514Z" fill="black"/>
<path d="M697.331 819.454C696.263 819.454 695.398 819.215 694.735 818.736C694.072 818.22 693.685 817.558 693.575 816.747C693.464 815.937 693.685 815.035 694.238 814.041L710.202 784.431V787.083H693.52C692.304 787.083 691.384 786.788 690.758 786.199C690.131 785.573 689.818 784.689 689.818 783.548C689.818 782.406 690.131 781.54 690.758 780.951C691.384 780.325 692.304 780.012 693.52 780.012H714.566C715.745 780.012 716.702 780.325 717.439 780.951C718.212 781.577 718.599 782.461 718.599 783.603C718.599 784.597 718.452 785.463 718.157 786.199C717.899 786.936 717.549 787.727 717.108 788.574L702.192 816.692C701.677 817.65 701.032 818.349 700.259 818.791C699.486 819.233 698.51 819.454 697.331 819.454ZM736.42 819.565C734.468 819.565 732.48 819.344 730.454 818.902C728.466 818.423 726.735 817.76 725.262 816.913C724.304 816.398 723.641 815.79 723.273 815.09C722.941 814.354 722.813 813.635 722.886 812.936C722.997 812.236 723.291 811.628 723.77 811.113C724.249 810.56 724.856 810.211 725.593 810.063C726.366 809.916 727.213 810.063 728.134 810.505C729.57 811.205 730.933 811.702 732.222 811.997C733.511 812.291 734.8 812.439 736.089 812.439C737.562 812.439 738.796 812.254 739.79 811.886C740.784 811.481 741.539 810.91 742.055 810.174C742.57 809.437 742.828 808.516 742.828 807.412C742.828 805.865 742.294 804.705 741.226 803.931C740.158 803.158 738.593 802.771 736.531 802.771H733.272C732.056 802.771 731.117 802.477 730.454 801.888C729.828 801.262 729.515 800.414 729.515 799.346C729.515 798.242 729.828 797.395 730.454 796.805C731.117 796.179 732.056 795.866 733.272 795.866H735.702C736.954 795.866 738.004 795.682 738.851 795.314C739.735 794.909 740.416 794.356 740.895 793.657C741.41 792.957 741.668 792.092 741.668 791.06C741.668 789.587 741.153 788.464 740.121 787.691C739.127 786.917 737.672 786.531 735.757 786.531C734.579 786.531 733.419 786.678 732.277 786.973C731.136 787.23 729.902 787.709 728.576 788.409C727.766 788.814 727.011 788.943 726.311 788.795C725.611 788.648 725.022 788.317 724.543 787.801C724.102 787.286 723.807 786.696 723.66 786.033C723.549 785.334 723.641 784.634 723.936 783.934C724.267 783.235 724.856 782.664 725.704 782.222C727.287 781.301 729 780.601 730.841 780.123C732.719 779.644 734.616 779.404 736.531 779.404C739.33 779.404 741.723 779.828 743.712 780.675C745.701 781.522 747.229 782.737 748.297 784.321C749.365 785.868 749.899 787.746 749.899 789.956C749.899 791.465 749.604 792.846 749.015 794.099C748.426 795.351 747.597 796.419 746.529 797.303C745.498 798.15 744.228 798.757 742.718 799.126V798.407C745.332 798.849 747.376 799.936 748.849 801.667C750.323 803.397 751.059 805.57 751.059 808.185C751.059 810.505 750.47 812.531 749.291 814.262C748.113 815.956 746.419 817.263 744.209 818.184C742.036 819.104 739.44 819.565 736.42 819.565ZM761.533 818.957C760.171 818.957 759.158 818.644 758.495 818.018C757.869 817.355 757.556 816.398 757.556 815.145C757.556 814.335 757.759 813.58 758.164 812.881C758.569 812.181 759.121 811.463 759.821 810.726L770.206 799.788C771.753 798.131 772.858 796.658 773.521 795.369C774.22 794.08 774.57 792.791 774.57 791.502C774.57 789.882 774.036 788.648 772.968 787.801C771.937 786.954 770.427 786.531 768.438 786.531C767.37 786.531 766.266 786.696 765.124 787.028C764.019 787.322 762.859 787.82 761.644 788.519C760.834 788.961 760.079 789.127 759.379 789.016C758.716 788.869 758.145 788.556 757.666 788.077C757.188 787.562 756.875 786.954 756.727 786.254C756.58 785.555 756.654 784.855 756.948 784.155C757.243 783.456 757.795 782.866 758.606 782.388C760.226 781.393 761.994 780.657 763.909 780.178C765.824 779.662 767.72 779.404 769.598 779.404C772.508 779.404 774.957 779.846 776.946 780.73C778.934 781.577 780.444 782.829 781.475 784.487C782.506 786.144 783.022 788.169 783.022 790.563C783.022 792.11 782.783 793.62 782.304 795.093C781.825 796.566 781.07 798.058 780.039 799.567C779.045 801.041 777.719 802.624 776.062 804.318L766.395 814.151V811.941H781.365C782.543 811.941 783.427 812.236 784.016 812.825C784.642 813.415 784.955 814.28 784.955 815.422C784.955 816.563 784.642 817.447 784.016 818.073C783.427 818.662 782.543 818.957 781.365 818.957H761.533ZM794.656 818.957C793.294 818.957 792.281 818.644 791.618 818.018C790.992 817.355 790.679 816.398 790.679 815.145C790.679 814.335 790.882 813.58 791.287 812.881C791.692 812.181 792.244 811.463 792.944 810.726L803.329 799.788C804.876 798.131 805.981 796.658 806.644 795.369C807.343 794.08 807.693 792.791 807.693 791.502C807.693 789.882 807.159 788.648 806.091 787.801C805.06 786.954 803.55 786.531 801.561 786.531C800.493 786.531 799.389 786.696 798.247 787.028C797.142 787.322 795.982 787.82 794.767 788.519C793.957 788.961 793.202 789.127 792.502 789.016C791.839 788.869 791.268 788.556 790.789 788.077C790.311 787.562 789.998 786.954 789.85 786.254C789.703 785.555 789.777 784.855 790.071 784.155C790.366 783.456 790.918 782.866 791.729 782.388C793.349 781.393 795.117 780.657 797.032 780.178C798.947 779.662 800.843 779.404 802.722 779.404C805.631 779.404 808.08 779.846 810.069 780.73C812.057 781.577 813.567 782.829 814.598 784.487C815.629 786.144 816.145 788.169 816.145 790.563C816.145 792.11 815.906 793.62 815.427 795.093C814.948 796.566 814.193 798.058 813.162 799.567C812.168 801.041 810.842 802.624 809.185 804.318L799.518 814.151V811.941H814.488C815.666 811.941 816.55 812.236 817.139 812.825C817.765 813.415 818.078 814.28 818.078 815.422C818.078 816.563 817.765 817.447 817.139 818.073C816.55 818.662 815.666 818.957 814.488 818.957H794.656Z" fill="black"/>
<path d="M174.637 1040.02C173.444 1040.02 172.516 1039.71 171.853 1039.09C171.234 1038.43 170.925 1037.5 170.925 1036.31V996.998C170.925 995.805 171.234 994.899 171.853 994.28C172.516 993.617 173.444 993.286 174.637 993.286H198.833C199.761 993.286 200.468 993.529 200.954 994.015C201.44 994.457 201.683 995.12 201.683 996.004C201.683 996.932 201.44 997.639 200.954 998.125C200.468 998.611 199.761 998.854 198.833 998.854H177.554V1013.5H197.374C198.347 1013.5 199.054 1013.75 199.496 1014.23C199.982 1014.72 200.225 1015.4 200.225 1016.29C200.225 1017.22 199.982 1017.92 199.496 1018.41C199.054 1018.85 198.347 1019.07 197.374 1019.07H177.554V1034.45H198.833C199.761 1034.45 200.468 1034.69 200.954 1035.18C201.44 1035.67 201.683 1036.35 201.683 1037.24C201.683 1038.16 201.44 1038.87 200.954 1039.36C200.468 1039.8 199.761 1040.02 198.833 1040.02H174.637ZM210.358 1040.42C209.563 1040.42 208.9 1040.2 208.37 1039.75C207.883 1039.27 207.618 1038.67 207.574 1037.96C207.574 1037.26 207.883 1036.48 208.502 1035.64L219.705 1021.66V1024.97L209.231 1011.91C208.524 1011.12 208.193 1010.37 208.237 1009.66C208.281 1008.91 208.568 1008.31 209.099 1007.87C209.629 1007.43 210.27 1007.21 211.021 1007.21C211.861 1007.21 212.546 1007.36 213.076 1007.67C213.651 1007.94 214.181 1008.4 214.667 1009.06L223.483 1020.27H221.097L229.98 1009.06C230.466 1008.4 230.974 1007.94 231.504 1007.67C232.079 1007.36 232.764 1007.21 233.559 1007.21C234.355 1007.21 234.996 1007.45 235.482 1007.94C236.012 1008.38 236.277 1008.97 236.277 1009.73C236.321 1010.43 236.012 1011.18 235.349 1011.98L224.876 1024.84V1021.86L236.078 1035.64C236.741 1036.44 237.051 1037.21 237.006 1037.96C237.006 1038.67 236.741 1039.27 236.211 1039.75C235.681 1040.2 235.018 1040.42 234.222 1040.42C233.427 1040.42 232.742 1040.26 232.167 1039.95C231.637 1039.64 231.107 1039.18 230.576 1038.56L221.097 1026.63H223.351L213.938 1038.56C213.452 1039.14 212.921 1039.6 212.347 1039.95C211.817 1040.26 211.154 1040.42 210.358 1040.42ZM247.956 1052.42C246.895 1052.42 246.078 1052.13 245.503 1051.55C244.929 1050.98 244.642 1050.14 244.642 1049.03V1010.59C244.642 1009.48 244.929 1008.64 245.503 1008.07C246.078 1007.49 246.873 1007.21 247.89 1007.21C248.95 1007.21 249.768 1007.49 250.342 1008.07C250.917 1008.64 251.204 1009.48 251.204 1010.59V1016.35L250.475 1014.96C251.182 1012.58 252.574 1010.68 254.651 1009.26C256.728 1007.8 259.181 1007.07 262.009 1007.07C264.882 1007.07 267.379 1007.76 269.5 1009.13C271.665 1010.5 273.323 1012.42 274.472 1014.9C275.665 1017.37 276.262 1020.35 276.262 1023.84C276.262 1027.25 275.665 1030.23 274.472 1032.79C273.323 1035.31 271.688 1037.26 269.566 1038.63C267.445 1039.95 264.926 1040.62 262.009 1040.62C259.225 1040.62 256.795 1039.91 254.718 1038.49C252.641 1037.08 251.248 1035.2 250.541 1032.86H251.337V1049.03C251.337 1050.14 251.027 1050.98 250.409 1051.55C249.834 1052.13 249.017 1052.42 247.956 1052.42ZM260.352 1035.45C262.208 1035.45 263.821 1035 265.191 1034.12C266.561 1033.24 267.622 1031.93 268.373 1030.21C269.124 1028.49 269.5 1026.36 269.5 1023.84C269.5 1020.04 268.66 1017.17 266.981 1015.23C265.346 1013.28 263.136 1012.31 260.352 1012.31C258.54 1012.31 256.927 1012.75 255.513 1013.64C254.143 1014.48 253.082 1015.76 252.331 1017.48C251.58 1019.2 251.204 1021.33 251.204 1023.84C251.204 1027.6 252.044 1030.47 253.723 1032.46C255.403 1034.45 257.612 1035.45 260.352 1035.45Z" fill="black"/>
<path d="M343.568 1040.68C338.044 1040.68 333.824 1038.61 330.907 1034.45C327.99 1030.25 326.532 1024.29 326.532 1016.55C326.532 1011.34 327.173 1006.96 328.454 1003.43C329.78 999.848 331.703 997.153 334.222 995.341C336.785 993.529 339.9 992.623 343.568 992.623C349.137 992.623 353.357 994.656 356.23 998.721C359.146 1002.79 360.605 1008.71 360.605 1016.49C360.605 1021.66 359.942 1026.05 358.616 1029.68C357.334 1033.26 355.434 1036 352.915 1037.9C350.396 1039.75 347.281 1040.68 343.568 1040.68ZM343.568 1033.72C346.573 1033.72 348.783 1032.33 350.197 1029.55C351.656 1026.76 352.385 1022.41 352.385 1016.49C352.385 1010.57 351.656 1006.28 350.197 1003.63C348.783 1000.93 346.573 999.583 343.568 999.583C340.607 999.583 338.398 1000.93 336.939 1003.63C335.481 1006.28 334.752 1010.57 334.752 1016.49C334.752 1022.41 335.481 1026.76 336.939 1029.55C338.398 1032.33 340.607 1033.72 343.568 1033.72ZM379.67 1040.68C377.77 1040.68 375.803 1040.4 373.77 1039.82C371.737 1039.2 369.837 1038.3 368.069 1037.1C367.362 1036.66 366.898 1036.09 366.677 1035.38C366.456 1034.67 366.412 1033.99 366.545 1033.32C366.722 1032.62 367.031 1032.02 367.473 1031.53C367.959 1031 368.556 1030.69 369.263 1030.61C369.97 1030.47 370.743 1030.65 371.583 1031.14C373.085 1032.02 374.5 1032.64 375.825 1032.99C377.151 1033.35 378.477 1033.52 379.803 1033.52C382.366 1033.52 384.531 1032.93 386.299 1031.73C388.067 1030.54 389.392 1028.75 390.276 1026.36C391.204 1023.93 391.668 1020.95 391.668 1017.41V1012.44H392.464C392.155 1014.65 391.425 1016.58 390.276 1018.21C389.127 1019.85 387.669 1021.11 385.901 1021.99C384.134 1022.83 382.167 1023.25 380.002 1023.25C377.35 1023.25 374.964 1022.61 372.842 1021.33C370.765 1020.04 369.13 1018.28 367.937 1016.02C366.744 1013.72 366.147 1011.14 366.147 1008.27C366.147 1005.22 366.788 1002.52 368.069 1000.18C369.395 997.838 371.229 996.004 373.571 994.678C375.914 993.308 378.587 992.623 381.592 992.623C385.481 992.623 388.774 993.529 391.47 995.341C394.165 997.153 396.22 999.804 397.634 1003.3C399.049 1006.74 399.756 1010.92 399.756 1015.82C399.756 1019.8 399.292 1023.34 398.364 1026.43C397.48 1029.48 396.176 1032.06 394.453 1034.19C392.729 1036.31 390.608 1037.92 388.089 1039.03C385.614 1040.13 382.808 1040.68 379.67 1040.68ZM382.123 1016.49C383.714 1016.49 385.106 1016.13 386.299 1015.43C387.536 1014.67 388.487 1013.66 389.149 1012.38C389.812 1011.05 390.144 1009.55 390.144 1007.87C390.144 1006.15 389.812 1004.64 389.149 1003.36C388.487 1002.08 387.536 1001.09 386.299 1000.38C385.106 999.672 383.714 999.318 382.123 999.318C380.532 999.318 379.14 999.672 377.947 1000.38C376.753 1001.09 375.803 1002.08 375.096 1003.36C374.433 1004.64 374.102 1006.15 374.102 1007.87C374.102 1009.55 374.433 1011.05 375.096 1012.38C375.803 1013.66 376.753 1014.67 377.947 1015.43C379.14 1016.13 380.532 1016.49 382.123 1016.49ZM409.01 1041.94C408.745 1042.78 408.325 1043.38 407.751 1043.73C407.176 1044.13 406.535 1044.33 405.828 1044.33C405.166 1044.33 404.547 1044.15 403.972 1043.8C403.398 1043.44 403 1042.94 402.779 1042.27C402.514 1041.65 402.514 1040.9 402.779 1040.02L418.092 992.49C418.357 991.651 418.777 991.032 419.351 990.634C419.97 990.236 420.611 990.06 421.274 990.104C421.937 990.104 422.555 990.281 423.13 990.634C423.704 990.988 424.102 991.474 424.323 992.092C424.588 992.711 424.588 993.462 424.323 994.346L409.01 1041.94ZM432.773 1040.02C431.359 1040.02 430.321 1039.71 429.658 1039.09C429.039 1038.43 428.73 1037.48 428.73 1036.24C428.73 1035.49 428.929 1034.76 429.326 1034.05C429.724 1033.35 430.299 1032.6 431.05 1031.8L444.374 1017.61C446.407 1015.49 447.865 1013.57 448.749 1011.85C449.633 1010.08 450.075 1008.31 450.075 1006.54C450.075 1004.33 449.368 1002.65 447.954 1001.51C446.584 1000.36 444.573 999.782 441.921 999.782C440.419 999.782 438.916 1000 437.414 1000.44C435.911 1000.84 434.386 1001.55 432.84 1002.57C432.044 1003.1 431.293 1003.32 430.586 1003.23C429.923 1003.14 429.326 1002.85 428.796 1002.37C428.31 1001.88 427.978 1001.28 427.802 1000.58C427.625 999.87 427.647 999.163 427.868 998.456C428.133 997.705 428.663 997.064 429.459 996.534C431.359 995.252 433.48 994.28 435.823 993.617C438.209 992.954 440.596 992.623 442.982 992.623C446.341 992.623 449.169 993.131 451.467 994.147C453.765 995.164 455.511 996.644 456.704 998.589C457.897 1000.53 458.494 1002.9 458.494 1005.68C458.494 1007.54 458.184 1009.35 457.566 1011.12C456.991 1012.89 456.085 1014.67 454.848 1016.49C453.654 1018.3 452.086 1020.22 450.141 1022.25L437.679 1035.25V1032.99H457.168C458.361 1032.99 459.267 1033.28 459.886 1033.85C460.504 1034.43 460.814 1035.29 460.814 1036.44C460.814 1037.59 460.504 1038.47 459.886 1039.09C459.267 1039.71 458.361 1040.02 457.168 1040.02H432.773ZM472.521 1040.02C471.107 1040.02 470.068 1039.71 469.405 1039.09C468.787 1038.43 468.477 1037.48 468.477 1036.24C468.477 1035.49 468.676 1034.76 469.074 1034.05C469.472 1033.35 470.046 1032.6 470.797 1031.8L484.122 1017.61C486.154 1015.49 487.613 1013.57 488.497 1011.85C489.381 1010.08 489.822 1008.31 489.822 1006.54C489.822 1004.33 489.115 1002.65 487.701 1001.51C486.331 1000.36 484.32 999.782 481.669 999.782C480.166 999.782 478.664 1000 477.161 1000.44C475.659 1000.84 474.134 1001.55 472.587 1002.57C471.792 1003.1 471.041 1003.32 470.333 1003.23C469.671 1003.14 469.074 1002.85 468.544 1002.37C468.058 1001.88 467.726 1001.28 467.549 1000.58C467.373 999.87 467.395 999.163 467.616 998.456C467.881 997.705 468.411 997.064 469.207 996.534C471.107 995.252 473.228 994.28 475.57 993.617C477.957 992.954 480.343 992.623 482.73 992.623C486.088 992.623 488.917 993.131 491.215 994.147C493.513 995.164 495.258 996.644 496.451 998.589C497.645 1000.53 498.241 1002.9 498.241 1005.68C498.241 1007.54 497.932 1009.35 497.313 1011.12C496.739 1012.89 495.833 1014.67 494.595 1016.49C493.402 1018.3 491.833 1020.22 489.889 1022.25L477.426 1035.25V1032.99H496.915C498.109 1032.99 499.015 1033.28 499.633 1033.85C500.252 1034.43 500.561 1035.29 500.561 1036.44C500.561 1037.59 500.252 1038.47 499.633 1039.09C499.015 1039.71 498.109 1040.02 496.915 1040.02H472.521Z" fill="black"/>
<path d="M172.07 1687.52C170.877 1687.52 169.949 1687.21 169.286 1686.59C168.667 1685.92 168.358 1685 168.358 1683.8V1644.49C168.358 1643.3 168.667 1642.39 169.286 1641.78C169.949 1641.11 170.877 1640.78 172.07 1640.78H184.864C192.553 1640.78 198.475 1642.79 202.629 1646.81C206.827 1650.79 208.927 1656.56 208.927 1664.12C208.927 1667.87 208.396 1671.21 207.336 1674.13C206.275 1677.04 204.706 1679.49 202.629 1681.48C200.596 1683.43 198.099 1684.93 195.138 1685.99C192.177 1687.01 188.753 1687.52 184.864 1687.52H172.07ZM175.252 1681.75H184.466C187.383 1681.75 189.902 1681.39 192.023 1680.69C194.188 1679.94 196 1678.83 197.459 1677.37C198.917 1675.92 200 1674.08 200.707 1671.87C201.414 1669.66 201.767 1667.08 201.767 1664.12C201.767 1658.24 200.309 1653.84 197.392 1650.92C194.52 1648.01 190.211 1646.55 184.466 1646.55H175.252V1681.75ZM232.59 1688.11C229.055 1688.11 226.006 1687.45 223.442 1686.12C220.923 1684.75 218.957 1682.83 217.543 1680.36C216.173 1677.84 215.488 1674.85 215.488 1671.41C215.488 1668.05 216.173 1665.11 217.543 1662.59C218.913 1660.07 220.791 1658.11 223.177 1656.69C225.564 1655.28 228.281 1654.57 231.331 1654.57C233.585 1654.57 235.595 1654.95 237.363 1655.7C239.131 1656.4 240.633 1657.46 241.871 1658.88C243.152 1660.25 244.102 1661.93 244.721 1663.92C245.384 1665.91 245.715 1668.14 245.715 1670.61C245.715 1671.36 245.495 1671.94 245.053 1672.34C244.611 1672.69 243.948 1672.87 243.064 1672.87H220.791V1668.76H241.208L240.081 1669.68C240.081 1667.47 239.749 1665.6 239.087 1664.05C238.468 1662.5 237.518 1661.33 236.236 1660.54C234.999 1659.7 233.452 1659.28 231.596 1659.28C229.519 1659.28 227.751 1659.76 226.293 1660.73C224.879 1661.71 223.796 1663.05 223.045 1664.78C222.293 1666.5 221.918 1668.51 221.918 1670.81V1671.21C221.918 1675.1 222.824 1678.04 224.636 1680.02C226.492 1681.97 229.165 1682.94 232.657 1682.94C233.982 1682.94 235.374 1682.76 236.833 1682.41C238.335 1682.06 239.749 1681.46 241.075 1680.62C241.827 1680.18 242.489 1679.98 243.064 1680.02C243.683 1680.07 244.169 1680.27 244.522 1680.62C244.92 1680.98 245.163 1681.42 245.251 1681.95C245.34 1682.48 245.251 1683.03 244.986 1683.6C244.721 1684.13 244.257 1684.62 243.594 1685.06C242.092 1686.08 240.346 1686.85 238.357 1687.38C236.369 1687.87 234.446 1688.11 232.59 1688.11ZM270.382 1688.11C267.554 1688.11 265.101 1687.41 263.024 1685.99C260.947 1684.53 259.555 1682.61 258.848 1680.22L259.577 1679.03V1684.6C259.577 1685.66 259.29 1686.5 258.715 1687.12C258.141 1687.69 257.345 1687.98 256.329 1687.98C255.268 1687.98 254.451 1687.69 253.876 1687.12C253.302 1686.5 253.015 1685.66 253.015 1684.6V1643.7C253.015 1642.59 253.302 1641.75 253.876 1641.18C254.451 1640.6 255.268 1640.32 256.329 1640.32C257.39 1640.32 258.207 1640.6 258.782 1641.18C259.4 1641.75 259.71 1642.59 259.71 1643.7V1662.26H258.914C259.621 1659.92 261.013 1658.06 263.09 1656.69C265.168 1655.28 267.598 1654.57 270.382 1654.57C273.299 1654.57 275.818 1655.25 277.939 1656.62C280.061 1657.99 281.696 1659.92 282.845 1662.39C284.038 1664.87 284.634 1667.85 284.634 1671.34C284.634 1674.74 284.038 1677.73 282.845 1680.29C281.696 1682.81 280.038 1684.75 277.873 1686.12C275.752 1687.45 273.255 1688.11 270.382 1688.11ZM268.725 1682.94C270.581 1682.94 272.194 1682.5 273.564 1681.62C274.934 1680.73 275.995 1679.43 276.746 1677.7C277.497 1675.98 277.873 1673.86 277.873 1671.34C277.873 1667.54 277.033 1664.67 275.354 1662.72C273.719 1660.78 271.509 1659.81 268.725 1659.81C266.913 1659.81 265.3 1660.25 263.886 1661.13C262.516 1661.97 261.455 1663.25 260.704 1664.98C259.953 1666.7 259.577 1668.82 259.577 1671.34C259.577 1675.1 260.417 1677.97 262.096 1679.96C263.775 1681.95 265.985 1682.94 268.725 1682.94ZM295.494 1687.91C294.433 1687.91 293.616 1687.6 293.041 1686.99C292.467 1686.32 292.18 1685.42 292.18 1684.27V1658.41C292.18 1657.27 292.467 1656.38 293.041 1655.76C293.616 1655.14 294.433 1654.84 295.494 1654.84C296.555 1654.84 297.372 1655.14 297.947 1655.76C298.565 1656.38 298.875 1657.27 298.875 1658.41V1684.27C298.875 1685.42 298.587 1686.32 298.013 1686.99C297.438 1687.6 296.599 1687.91 295.494 1687.91ZM295.494 1647.94C294.168 1647.94 293.13 1647.61 292.378 1646.95C291.671 1646.28 291.318 1645.36 291.318 1644.16C291.318 1642.93 291.671 1642 292.378 1641.38C293.13 1640.72 294.168 1640.38 295.494 1640.38C296.82 1640.38 297.836 1640.72 298.543 1641.38C299.295 1642 299.67 1642.93 299.67 1644.16C299.67 1645.36 299.295 1646.28 298.543 1646.95C297.836 1647.61 296.82 1647.94 295.494 1647.94ZM322.087 1688.11C319.435 1688.11 317.203 1687.65 315.392 1686.72C313.58 1685.79 312.232 1684.42 311.348 1682.61C310.464 1680.8 310.022 1678.59 310.022 1675.98V1660.34H306.045C305.161 1660.34 304.476 1660.12 303.99 1659.67C303.504 1659.19 303.261 1658.55 303.261 1657.75C303.261 1656.91 303.504 1656.27 303.99 1655.83C304.476 1655.39 305.161 1655.17 306.045 1655.17H310.022V1648.34C310.022 1647.23 310.309 1646.39 310.884 1645.82C311.503 1645.25 312.342 1644.96 313.403 1644.96C314.464 1644.96 315.281 1645.25 315.856 1645.82C316.43 1646.39 316.717 1647.23 316.717 1648.34V1655.17H324.473C325.357 1655.17 326.042 1655.39 326.528 1655.83C327.014 1656.27 327.257 1656.91 327.257 1657.75C327.257 1658.55 327.014 1659.19 326.528 1659.67C326.042 1660.12 325.357 1660.34 324.473 1660.34H316.717V1675.45C316.717 1677.79 317.203 1679.56 318.176 1680.75C319.192 1681.95 320.827 1682.54 323.081 1682.54C323.877 1682.54 324.562 1682.48 325.136 1682.35C325.755 1682.17 326.263 1682.06 326.661 1682.01C327.147 1682.01 327.545 1682.19 327.854 1682.54C328.163 1682.85 328.318 1683.47 328.318 1684.4C328.318 1685.06 328.185 1685.68 327.92 1686.26C327.699 1686.83 327.279 1687.21 326.661 1687.38C326.13 1687.56 325.401 1687.71 324.473 1687.85C323.589 1688.02 322.794 1688.11 322.087 1688.11ZM371.665 1688.11C366.936 1688.11 362.893 1687.14 359.534 1685.2C356.175 1683.25 353.59 1680.49 351.778 1676.91C350.01 1673.29 349.127 1669.02 349.127 1664.12C349.127 1660.45 349.635 1657.16 350.651 1654.24C351.668 1651.28 353.126 1648.76 355.026 1646.68C356.971 1644.56 359.335 1642.95 362.119 1641.84C364.948 1640.74 368.129 1640.19 371.665 1640.19C374.272 1640.19 376.769 1640.54 379.156 1641.25C381.586 1641.95 383.685 1642.97 385.453 1644.3C386.204 1644.78 386.69 1645.38 386.911 1646.08C387.177 1646.75 387.221 1647.39 387.044 1648.01C386.911 1648.63 386.624 1649.16 386.182 1649.6C385.74 1650 385.166 1650.22 384.459 1650.26C383.796 1650.31 383.067 1650.06 382.271 1649.53C380.813 1648.43 379.2 1647.61 377.432 1647.08C375.664 1646.55 373.808 1646.28 371.864 1646.28C368.505 1646.28 365.677 1646.99 363.379 1648.41C361.081 1649.77 359.335 1651.79 358.142 1654.44C356.949 1657.09 356.352 1660.31 356.352 1664.12C356.352 1667.92 356.949 1671.16 358.142 1673.86C359.335 1676.51 361.081 1678.54 363.379 1679.96C365.677 1681.33 368.505 1682.01 371.864 1682.01C373.808 1682.01 375.664 1681.75 377.432 1681.22C379.244 1680.64 380.945 1679.8 382.536 1678.7C383.332 1678.21 384.039 1677.99 384.658 1678.04C385.32 1678.08 385.873 1678.3 386.315 1678.7C386.757 1679.1 387.044 1679.61 387.177 1680.22C387.353 1680.8 387.331 1681.42 387.11 1682.08C386.933 1682.7 386.514 1683.23 385.851 1683.67C384.039 1685.13 381.895 1686.23 379.421 1686.99C376.946 1687.74 374.361 1688.11 371.665 1688.11ZM404.026 1688.11C401.772 1688.11 399.739 1687.67 397.927 1686.79C396.16 1685.9 394.768 1684.71 393.751 1683.21C392.735 1681.7 392.226 1680 392.226 1678.1C392.226 1675.72 392.823 1673.84 394.016 1672.47C395.254 1671.05 397.264 1670.06 400.049 1669.48C402.877 1668.87 406.677 1668.56 411.45 1668.56H414.566V1672.67H411.517C408.335 1672.67 405.816 1672.82 403.96 1673.13C402.104 1673.44 400.778 1673.97 399.982 1674.72C399.231 1675.43 398.855 1676.42 398.855 1677.7C398.855 1679.38 399.43 1680.75 400.579 1681.81C401.728 1682.83 403.319 1683.34 405.352 1683.34C406.987 1683.34 408.423 1682.96 409.66 1682.21C410.898 1681.42 411.87 1680.36 412.577 1679.03C413.328 1677.7 413.704 1676.18 413.704 1674.46V1666.83C413.704 1664.31 413.174 1662.5 412.113 1661.4C411.053 1660.29 409.307 1659.74 406.876 1659.74C405.462 1659.74 403.982 1659.92 402.435 1660.27C400.932 1660.62 399.364 1661.22 397.728 1662.06C396.977 1662.41 396.336 1662.52 395.806 1662.39C395.276 1662.26 394.856 1661.97 394.547 1661.53C394.237 1661.04 394.06 1660.54 394.016 1660.01C394.016 1659.43 394.149 1658.88 394.414 1658.35C394.723 1657.82 395.232 1657.42 395.939 1657.16C397.883 1656.23 399.805 1655.56 401.706 1655.17C403.606 1654.77 405.396 1654.57 407.075 1654.57C410.036 1654.57 412.467 1655.03 414.367 1655.96C416.311 1656.89 417.748 1658.3 418.676 1660.2C419.604 1662.1 420.068 1664.56 420.068 1667.56V1684.6C420.068 1685.66 419.803 1686.5 419.272 1687.12C418.742 1687.69 417.969 1687.98 416.952 1687.98C415.98 1687.98 415.207 1687.69 414.632 1687.12C414.058 1686.5 413.77 1685.66 413.77 1684.6V1680.29H414.367C414.013 1681.93 413.351 1683.34 412.378 1684.53C411.45 1685.68 410.279 1686.57 408.865 1687.18C407.451 1687.8 405.838 1688.11 404.026 1688.11ZM432.67 1687.98C431.565 1687.98 430.726 1687.69 430.151 1687.12C429.577 1686.5 429.289 1685.66 429.289 1684.6V1658.08C429.289 1656.98 429.577 1656.14 430.151 1655.56C430.726 1654.99 431.521 1654.7 432.537 1654.7C433.598 1654.7 434.394 1654.99 434.924 1655.56C435.498 1656.14 435.786 1656.98 435.786 1658.08V1662.92H435.123C435.83 1660.27 437.134 1658.26 439.034 1656.89C440.934 1655.52 443.365 1654.72 446.326 1654.5C447.121 1654.46 447.74 1654.66 448.182 1655.1C448.668 1655.54 448.933 1656.23 448.977 1657.16C449.066 1658.08 448.867 1658.83 448.381 1659.41C447.894 1659.94 447.143 1660.25 446.127 1660.34L444.867 1660.47C441.995 1660.73 439.807 1661.64 438.305 1663.19C436.802 1664.73 436.051 1666.86 436.051 1669.55V1684.6C436.051 1685.66 435.764 1686.5 435.189 1687.12C434.659 1687.69 433.819 1687.98 432.67 1687.98ZM465.895 1688.11C463.067 1688.11 460.57 1687.45 458.404 1686.12C456.283 1684.75 454.626 1682.81 453.433 1680.29C452.239 1677.73 451.643 1674.74 451.643 1671.34C451.643 1667.85 452.239 1664.87 453.433 1662.39C454.626 1659.92 456.283 1657.99 458.404 1656.62C460.57 1655.25 463.067 1654.57 465.895 1654.57C468.723 1654.57 471.154 1655.28 473.187 1656.69C475.264 1658.06 476.656 1659.92 477.363 1662.26H476.634V1643.7C476.634 1642.59 476.921 1641.75 477.495 1641.18C478.07 1640.6 478.888 1640.32 479.948 1640.32C481.009 1640.32 481.826 1640.6 482.401 1641.18C483.02 1641.75 483.329 1642.59 483.329 1643.7V1684.6C483.329 1685.66 483.042 1686.5 482.467 1687.12C481.893 1687.69 481.075 1687.98 480.014 1687.98C478.954 1687.98 478.136 1687.69 477.562 1687.12C476.987 1686.5 476.7 1685.66 476.7 1684.6V1678.77L477.429 1680.22C476.722 1682.61 475.33 1684.53 473.253 1685.99C471.22 1687.41 468.767 1688.11 465.895 1688.11ZM467.618 1682.94C469.43 1682.94 471.021 1682.5 472.391 1681.62C473.761 1680.73 474.822 1679.43 475.573 1677.7C476.369 1675.98 476.766 1673.86 476.766 1671.34C476.766 1667.54 475.927 1664.67 474.247 1662.72C472.568 1660.78 470.358 1659.81 467.618 1659.81C465.762 1659.81 464.149 1660.25 462.779 1661.13C461.409 1661.97 460.327 1663.25 459.531 1664.98C458.78 1666.7 458.404 1668.82 458.404 1671.34C458.404 1675.1 459.244 1677.97 460.923 1679.96C462.603 1681.95 464.834 1682.94 467.618 1682.94Z" fill="white"/>
<path fill-rule="evenodd" clip-rule="evenodd" d="M881.339 1691.17H865.945L854.401 1646.49C853.853 1644.44 852.69 1642.62 850.979 1641.77C846.708 1639.61 842.002 1637.9 836.868 1637.04V1635.32H861.667C865.089 1635.32 867.656 1637.9 868.084 1640.9L874.074 1673.13L889.46 1635.32H904.426L881.339 1691.17ZM912.981 1691.17H898.442L910.414 1635.32H924.952L912.981 1691.17ZM943.765 1650.79C944.193 1647.79 946.76 1646.07 949.755 1646.07C954.461 1645.63 959.587 1646.5 963.865 1648.64L966.432 1636.62C962.154 1634.9 957.448 1634.03 953.177 1634.03C939.067 1634.03 928.799 1641.77 928.799 1652.51C928.799 1660.68 936.072 1664.97 941.206 1667.55C946.76 1670.13 948.899 1671.85 948.471 1674.42C948.471 1678.29 944.193 1680.01 939.922 1680.01C934.788 1680.01 929.655 1678.72 924.956 1676.57L922.389 1688.6C927.523 1690.74 933.077 1691.61 938.211 1691.61C954.033 1692.03 963.865 1684.3 963.865 1672.7C963.865 1658.09 943.765 1657.24 943.765 1650.79ZM1014.75 1691.17L1003.2 1635.32H990.802C988.235 1635.32 985.669 1637.04 984.813 1639.61L963.437 1691.17H978.403L981.39 1683.01H999.779L1001.49 1691.17H1014.75ZM992.943 1650.37L997.213 1671.42H985.242L992.943 1650.37Z" fill="white"/>
<path d="M1002.62 176.771C1027.48 209.916 1027.48 254.109 1002.62 287.253M980.527 193.344C997.1 215.44 997.1 248.585 980.527 270.681M961.193 212.678C968.927 225.107 968.927 238.918 961.193 251.347" stroke="black" stroke-width="8.28614" stroke-linecap="round" stroke-linejoin="round"/>
</g>
<defs>
<linearGradient id="paint0_linear_2069_105" x1="434.471" y1="-101.257" x2="1221.05" y2="579.852" gradientUnits="userSpaceOnUse">
<stop stop-color="#99A1FF"/>
<stop offset="1" stop-color="#B6BBF7" stop-opacity="0"/>
</linearGradient>
<linearGradient id="paint1_linear_2069_105" x1="975.537" y1="1142.68" x2="220.289" y2="411.948" gradientUnits="userSpaceOnUse">
<stop stop-color="#99A1FF"/>
<stop offset="1" stop-color="#B6BBF7" stop-opacity="0"/>
</linearGradient>
<linearGradient id="paint2_linear_2069_105" x1="734.705" y1="320.396" x2="911.476" y2="455.737" gradientUnits="userSpaceOnUse">
<stop stop-color="#E6AC3C"/>
<stop offset="1" stop-color="#FFDA93"/>
</linearGradient>
<clipPath id="clip0_2069_105">
<rect x="1160.06" width="1834" height="1160.06" rx="165.723" transform="rotate(90 1160.06 0)" fill="white"/>
</clipPath>
<clipPath id="clip1_2069_105">
<rect width="580.03" height="1160.06" fill="white" transform="matrix(0 -1 1 0 0 1834)"/>
</clipPath>
</defs>
</svg>
