<svg width="434" height="175" viewBox="0 0 434 175" fill="none" xmlns="http://www.w3.org/2000/svg">
<path d="M171.109 0.68165V134.609H188.306V80.3587H216.742C228.439 80.3587 238.287 76.5544 246.283 68.9457C250.265 65.3781 253.428 60.9915 255.556 56.0867C257.683 51.1819 258.725 45.8749 258.609 40.5299C258.689 35.2126 257.631 29.9397 255.506 25.0652C253.38 20.1908 250.235 15.8277 246.283 12.2693C242.367 8.48387 237.741 5.50976 232.671 3.51784C227.601 1.52592 222.188 0.555466 216.742 0.662241L171.109 0.68165ZM218.217 17.1799C221.217 17.2367 224.176 17.8926 226.919 19.1093C229.663 20.3259 232.135 22.0786 234.191 24.2645C236.378 26.3916 238.116 28.9355 239.303 31.7459C240.49 34.5563 241.102 37.5762 241.102 40.6269C241.102 43.6777 240.49 46.6975 239.303 49.5079C238.116 52.3183 236.378 54.8622 234.191 56.9893C231.993 59.2668 229.344 61.0596 226.412 62.2529C223.481 63.4462 220.332 64.0136 217.169 63.9186H188.306V17.1799H218.217ZM298.263 39.9864C281.933 39.9864 269.594 45.9711 261.248 57.9404L276.407 67.4706C281.997 59.3703 289.599 55.3201 299.214 55.3201C305.345 55.2352 311.282 57.4751 315.828 61.5895C318.079 63.4342 319.886 65.7613 321.116 68.3988C322.345 71.0362 322.966 73.9163 322.932 76.8261V80.7469C316.333 76.9943 307.922 75.1245 297.7 75.1375C285.717 75.1375 276.148 77.9454 268.993 83.5613C261.811 89.1513 258.227 96.6887 258.24 106.174C258.167 110.435 259.044 114.66 260.807 118.541C262.569 122.422 265.173 125.862 268.43 128.611C275.223 134.602 283.667 137.598 293.76 137.598C305.6 137.598 315.078 132.357 322.195 121.876H322.932V134.59H339.392V78.1265C339.392 66.2866 335.717 56.9699 328.367 50.1765C320.991 43.3831 310.957 39.9864 298.263 39.9864ZM342.187 42.9755L379.958 128.805L358.646 175.001H376.406L433.84 42.9561H415.109L388.557 108.775H388.169L360.878 42.9755H342.187ZM300.534 88.9378C310.122 88.9378 317.601 91.0728 322.971 95.343C322.971 102.563 320.124 108.859 314.431 114.229C311.898 116.782 308.883 118.807 305.561 120.187C302.239 121.566 298.676 122.272 295.079 122.264C290.229 122.358 285.495 120.767 281.687 117.761C279.917 116.477 278.478 114.789 277.489 112.839C276.5 110.888 275.989 108.73 276 106.542C276 101.586 278.348 97.4004 283.045 93.9843C287.704 90.62 293.546 88.9378 300.534 88.9378Z" fill="#555555"/>
<path d="M131.214 54.0729H125.898V53.799H66.4987V80.1984H103.798C98.3563 95.5662 83.7343 106.598 66.4987 106.598C44.63 106.598 26.8995 88.8674 26.8995 66.9987C26.8995 45.13 44.63 27.3995 66.4987 27.3995C76.5932 27.3995 85.7769 31.2076 92.7695 37.428L111.437 18.7603C99.6498 7.77477 83.8828 1 66.4987 1C30.0509 1 0.5 30.5509 0.5 66.9987C0.5 103.446 30.0509 132.997 66.4987 132.997C102.946 132.997 132.497 103.446 132.497 66.9987C132.497 62.5735 132.042 58.2539 131.214 54.0729Z" fill="#FFC107"/>
<path d="M8.11328 36.2796L29.7972 52.182C35.6644 37.6557 49.874 27.3995 66.5023 27.3995C76.5968 27.3995 85.7806 31.2076 92.7731 37.428L111.441 18.7603C99.6535 7.77477 83.8864 1 66.5023 1C41.1522 1 19.1681 15.3118 8.11328 36.2796Z" fill="#FF3D00"/>
<path d="M66.5014 133C83.5489 133 99.0388 126.476 110.75 115.866L90.3237 98.5813C83.4748 103.79 75.1059 106.607 66.5014 106.6C49.3352 106.6 34.7594 95.6543 29.2683 80.3789L7.74609 96.9611C18.6689 118.335 40.851 133 66.5014 133Z" fill="#4CAF50"/>
<path d="M131.215 54.0727H125.899V53.7988H66.5V80.1983H103.799C101.196 87.5123 96.5075 93.9035 90.3123 98.5822L90.3222 98.5756L110.749 115.861C109.303 117.174 132.499 99.9979 132.499 66.9986C132.499 62.5734 132.043 58.2537 131.215 54.0727Z" fill="#1976D2"/>
</svg>
