<svg width="623" height="167" viewBox="0 0 623 167" fill="none" xmlns="http://www.w3.org/2000/svg">
<path fill-rule="evenodd" clip-rule="evenodd" d="M117.145 34.0568C117.145 8.51437 97.4463 0.000216679 74.9462 0.000216679H26.3127C24.7416 0.0122722 23.2297 0.600635 22.0637 1.65365C20.8977 2.70667 20.1588 4.15109 19.9873 5.7128L0.047984 129.857C-0.324099 132.287 1.51443 134.716 3.94391 134.716H27.0569C30.3399 134.716 33.3823 131.192 33.7544 127.778L39.2262 95.4287C40.2304 88.2559 50.3578 89.0018 57.1991 89.5056C58.7081 89.6167 60.0573 89.7161 61.1134 89.7161C95.8923 89.7161 117.167 69.0545 117.167 34.0349L117.145 34.0568ZM53.2997 27.1404H59.0122C72.7574 27.1404 83.0882 28.9571 80.2867 45.2631C77.8572 60.7155 67.5264 62.5321 54.1533 62.5321L44.1727 62.9042L49.4037 30.4235C49.6445 28.3661 51.483 27.1404 53.2997 27.1404Z" fill="#27346A"/>
<path fill-rule="evenodd" clip-rule="evenodd" d="M219.533 44.7597H196.42C192.019 44.7597 191.594 50.843 191.355 54.2563C191.35 54.3362 191.344 54.4147 191.339 54.4916C191.333 54.5764 191.327 54.6594 191.321 54.7403C184.273 44.4095 174.052 42.5709 162.495 42.5709C132.707 42.5709 109.966 68.7043 109.966 97.5298C109.966 121.234 124.805 136.686 148.509 136.686C159.453 136.686 173.067 130.733 180.727 122.219C180.02 124.678 179.608 127.213 179.502 129.77C179.502 132.571 180.727 134.629 183.398 134.629H204.322C207.605 134.629 210.406 131.105 211.019 127.69L223.429 49.5092C223.801 47.1891 221.963 44.7597 219.533 44.7597ZM160.919 112.238C175.868 112.238 187.666 100.944 187.666 86.1047C187.666 74.198 179.173 67.2598 167.858 67.2598C153.018 67.2598 141.462 79.1664 141.462 94.006C141.462 105.913 149.735 112.238 160.919 112.238Z" fill="#27346A"/>
<path d="M268.78 163.804L346.239 51.1945C346.852 50.5817 346.852 49.9688 346.852 49.1371C346.852 47.0797 345.035 44.891 342.956 44.891H319.602C318.515 44.9338 317.454 45.2314 316.503 45.7599C315.553 46.2884 314.74 47.0329 314.13 47.9333L281.912 95.363L268.539 49.7718C268.036 48.3851 267.13 47.1809 265.936 46.3148C264.742 45.4486 263.316 44.9603 261.841 44.9129H239.101C237.021 44.9129 235.205 47.1016 235.205 49.159C235.205 50.1086 245.145 78.7951 252.716 100.645L252.717 100.647L252.718 100.65L252.723 100.665C256.84 112.547 260.255 122.404 260.988 124.67C260.81 124.921 260.578 125.246 260.298 125.639C255.42 132.482 236.058 159.647 236.058 163.104C236.058 165.293 237.875 167 239.954 167H263.308C264.4 166.928 265.462 166.607 266.41 166.06C267.359 165.514 268.169 164.757 268.78 163.848V163.804Z" fill="#27346A"/>
<path fill-rule="evenodd" clip-rule="evenodd" d="M462.482 34.0568C462.482 8.51437 442.783 0.000216679 420.283 0.000216679H372C370.383 -0.0127627 368.816 0.557756 367.586 1.60707C366.355 2.65637 365.545 4.11411 365.302 5.7128L345.604 129.748C345.363 132.177 347.18 134.607 349.5 134.607H374.429C376.859 134.607 378.676 132.79 379.288 130.711L384.76 95.4505C385.765 88.276 395.912 89.024 402.746 89.5279C404.252 89.6388 405.597 89.738 406.648 89.738C441.186 89.738 462.482 69.0764 462.482 34.0568ZM398.878 27.1404H404.349C414.702 27.1404 426.215 27.7533 426.346 40.6449C426.346 58.8769 415.402 62.5321 399.6 62.5321L389.882 62.9042L394.982 30.4235C395.222 28.3661 396.689 27.1404 398.878 27.1404Z" fill="#2790C3"/>
<path fill-rule="evenodd" clip-rule="evenodd" d="M564.849 44.7597H541.736C537.515 44.7597 536.951 50.3541 536.601 53.8234L536.6 53.8289C536.567 54.1535 536.536 54.4594 536.505 54.7403C529.807 44.4095 519.476 42.5709 507.679 42.5709C477.891 42.5709 455.15 68.7043 455.15 97.5298C455.15 121.234 469.989 136.686 493.693 136.686C505.009 136.686 518.623 130.733 525.911 122.219C525.881 122.366 525.848 122.527 525.812 122.699L525.78 122.851C525.37 124.827 524.685 128.123 524.685 129.77C524.685 132.571 525.911 134.629 528.581 134.629H549.615C552.898 134.629 555.7 131.105 556.313 127.69L568.723 49.5092C569.095 47.1891 567.278 44.7597 564.849 44.7597ZM486.777 94.006C486.777 79.057 498.333 67.2598 513.173 67.2598C524.489 67.2598 533.003 74.198 532.871 86.1047C532.871 101.054 521.074 112.238 506.475 112.238C495.291 112.238 486.777 105.803 486.777 94.006Z" fill="#2790C3"/>
<path fill-rule="evenodd" clip-rule="evenodd" d="M191.321 54.7403L191.339 54.4916L191.355 54.2563L191.321 54.7403Z" fill="black"/>
<path d="M622.609 4.26825C622.609 1.83876 620.792 0.0221128 618.713 0.0221128H596.213C594.396 0.0221128 592.558 1.48855 592.317 3.30519L572.619 129.77L572.268 130.383C572.268 132.571 574.085 134.629 576.515 134.629H596.585C599.628 134.629 602.67 131.105 602.911 127.69L622.609 4.64031V4.26825Z" fill="#2790C3"/>
</svg>
