<svg width="468" height="151" viewBox="0 0 468 151" fill="none" xmlns="http://www.w3.org/2000/svg">
<path d="M241.834 48.2729C241.568 69.3079 260.58 81.0455 274.903 88.0249C289.618 95.1851 294.56 99.7771 294.502 106.181C294.392 115.981 282.764 120.306 271.883 120.474C252.9 120.768 241.862 115.349 233.087 111.25L226.248 143.25C235.052 147.307 251.354 150.845 268.259 151C307.942 151 333.903 131.412 334.044 101.041C334.199 62.4965 280.73 60.3631 281.095 43.1347C281.221 37.9107 286.206 32.336 297.129 30.9186C302.535 30.2025 317.46 29.6546 334.382 37.4468L341.023 6.48618C331.923 3.17274 320.228 -3.05176e-05 305.666 -3.05176e-05C268.316 -3.05176e-05 242.046 19.8549 241.834 48.2729ZM404.84 2.66678C397.594 2.66678 391.488 6.89349 388.763 13.3797L332.078 148.726H371.732L379.623 126.918H428.078L432.656 148.726H467.605L437.107 2.66678H404.84ZM410.388 42.1228L421.831 96.9697H390.491L410.388 42.1228ZM193.757 2.66861L162.5 148.724H200.287L231.529 2.66495L193.757 2.66861ZM137.858 2.66861L98.5278 102.08L82.6182 17.5516C80.7514 8.11548 73.3794 2.66678 65.1926 2.66678H0.900506L0 6.9081C13.1989 9.77219 28.1951 14.3916 37.2806 19.3344C42.8407 22.3537 44.4262 24.9931 46.2528 32.1679L76.3859 148.726H116.317L177.537 2.66678L137.858 2.66861Z" fill="url(#paint0_linear_2062_36)"/>
<defs>
<linearGradient id="paint0_linear_2062_36" x1="21497.7" y1="453.906" x2="21934.8" y2="-15054" gradientUnits="userSpaceOnUse">
<stop stop-color="#222357"/>
<stop offset="1" stop-color="#254AA5"/>
</linearGradient>
</defs>
</svg>
